<svg width="87" height="87" viewBox="0 0 87 87" fill="none" xmlns="http://www.w3.org/2000/svg">
<path d="M47.5 45L27 33.5339V30.8333C27 30.0365 27.2536 29.365 27.7607 28.819C28.2679 28.273 28.8685 28 29.5625 28H65.4375C66.1315 28 66.7321 28.273 67.2393 28.819C67.7464 29.365 68 30.0365 68 30.8333V33.5339L47.5 45ZM46.2188 47.8333H48.7812L68 36.8099V59.1667C68 59.934 67.7464 60.5981 67.2393 61.1589C66.7321 61.7196 66.1315 62 65.4375 62H29.5625C28.8685 62 28.2679 61.7196 27.7607 61.1589C27.2536 60.5981 27 59.934 27 59.1667V36.8099L46.2188 47.8333Z" fill="url(#paint0_linear)"/>
<g filter="url(#filter0_bii)">
<circle cx="43.5" cy="43.5" r="43.5" fill="#E0C3FC" fill-opacity="0.1"/>
</g>
<path d="M43.5 43.375L27 35.0283V33.0625C27 32.4824 27.2041 31.9937 27.6123 31.5962C28.0205 31.1987 28.5039 31 29.0625 31H57.9375C58.4961 31 58.9795 31.1987 59.3877 31.5962C59.7959 31.9937 60 32.4824 60 33.0625V35.0283L43.5 43.375ZM42.4688 45.4375H44.5312L60 37.4131V53.6875C60 54.2461 59.7959 54.7295 59.3877 55.1377C58.9795 55.5459 58.4961 55.75 57.9375 55.75H29.0625C28.5039 55.75 28.0205 55.5459 27.6123 55.1377C27.2041 54.7295 27 54.2461 27 53.6875V37.4131L42.4688 45.4375Z" fill="url(#paint1_linear)"/>
<defs>
<filter id="filter0_bii" x="-30" y="-30" width="147" height="147" filterUnits="userSpaceOnUse" color-interpolation-filters="sRGB">
<feFlood flood-opacity="0" result="BackgroundImageFix"/>
<feGaussianBlur in="BackgroundImage" stdDeviation="15"/>
<feComposite in2="SourceAlpha" operator="in" result="effect1_backgroundBlur"/>
<feBlend mode="normal" in="SourceGraphic" in2="effect1_backgroundBlur" result="shape"/>
<feColorMatrix in="SourceAlpha" type="matrix" values="0 0 0 0 0 0 0 0 0 0 0 0 0 0 0 0 0 0 127 0" result="hardAlpha"/>
<feOffset dy="2"/>
<feGaussianBlur stdDeviation="2"/>
<feComposite in2="hardAlpha" operator="arithmetic" k2="-1" k3="1"/>
<feColorMatrix type="matrix" values="0 0 0 0 1 0 0 0 0 1 0 0 0 0 1 0 0 0 0.1 0"/>
<feBlend mode="normal" in2="shape" result="effect2_innerShadow"/>
<feColorMatrix in="SourceAlpha" type="matrix" values="0 0 0 0 0 0 0 0 0 0 0 0 0 0 0 0 0 0 127 0" result="hardAlpha"/>
<feOffset dy="-5"/>
<feGaussianBlur stdDeviation="6"/>
<feComposite in2="hardAlpha" operator="arithmetic" k2="-1" k3="1"/>
<feColorMatrix type="matrix" values="0 0 0 0 0 0 0 0 0 0.729708 0 0 0 0 0.775315 0 0 0 0.35 0"/>
<feBlend mode="normal" in2="effect2_innerShadow" result="effect3_innerShadow"/>
</filter>
<linearGradient id="paint0_linear" x1="65" y1="25.8461" x2="29.5974" y2="58.2203" gradientUnits="userSpaceOnUse">
<stop stop-color="#E0C3FC"/>
<stop offset="1" stop-color="#8EC5FC"/>
</linearGradient>
<linearGradient id="paint1_linear" x1="57.5854" y1="29.4321" x2="31.7129" y2="55.592" gradientUnits="userSpaceOnUse">
<stop stop-color="#C080FF"/>
<stop offset="1" stop-color="#8EC5FC"/>
</linearGradient>
</defs>
</svg>
